<svg xmlns="http://www.w3.org/2000/svg" width="32" height="32" fill="none" viewBox="0 0 32 32">
    <path fill="#f4c01a" d="M2.04 14.76a10.3 10.3 0 0 0 3.628 5.19A10.198 10.198 0 0 0 22 11.796a10.1 10.1 0 0 0-2.048-6.132 10.28 10.28 0 0 0-5.188-3.63.784.784 0 0 0-.981.982 8.64 8.64 0 0 1-10.768 10.77.785.785 0 0 0-.98.98z"/>
    <path fill="#d9d9d9" d="M19.951 9.125A9.5 9.5 0 1 1 21.496 28h-10A6.5 6.5 0 0 1 6.26 17.654l1.486-1.455a6.46 6.46 0 0 1 4.875-1.102 9.55 9.55 0 0 1 2.122-3.273c.925-.933 3.253-2.152 3.253-2.152z"/>
</svg>
